<?xml version="1.0" encoding="iso-8859-1"?>
<!-- Generator: Adobe Illustrator 19.0.0, SVG Export Plug-In . SVG Version: 6.00 Build 0)  -->
<svg version="1.1" id="Layer_1" xmlns="http://www.w3.org/2000/svg" xmlns:xlink="http://www.w3.org/1999/xlink" x="0px" y="0px"
	 viewBox="0 0 512.003 512.003" style="enable-background:new 0 0 512.003 512.003;" xml:space="preserve">
<g>
	<g>
		<path d="M504.47,152.976c-10.039-10.039-26.32-10.039-36.361,0L395.386,225.7c-23.702,23.699-59.11,28.708-87.775,15.051
			l124.136-124.138c10.041-10.039,10.041-26.32,0-36.361c-10.039-10.039-26.32-10.039-36.361,0L271.25,204.391
			c-13.656-28.665-8.648-64.074,15.053-87.777l72.724-72.722c10.041-10.041,10.041-26.32,0.002-36.361
			c-10.043-10.041-26.32-10.041-36.361,0l-72.725,72.724c-43.9,43.9-49.349,111.909-16.352,161.798L7.532,468.11
			c-10.041,10.039-10.041,26.32,0,36.361c5.021,5.021,11.599,7.532,18.18,7.532s13.161-2.511,18.18-7.532l226.044-226.042
			c20.852,13.843,45.307,21.286,70.908,21.286c34.338,0,66.622-13.372,90.903-37.653l72.724-72.724
			C514.512,179.3,514.512,163.018,504.47,152.976z"/>
	</g>
</g>
<g>
</g>
<g>
</g>
<g>
</g>
<g>
</g>
<g>
</g>
<g>
</g>
<g>
</g>
<g>
</g>
<g>
</g>
<g>
</g>
<g>
</g>
<g>
</g>
<g>
</g>
<g>
</g>
<g>
</g>
</svg>
